<svg width="200" height="23" viewBox="0 0 200 23" fill="none" xmlns="http://www.w3.org/2000/svg">
<path fill-rule="evenodd" clip-rule="evenodd" d="M23 11.5L11.5 0L0 11.5L11.5 23L23 11.5ZM19.9682 9.80982L11.5 1.34156L3.03171 9.80982L8.32438 6.9977L9.3829 10.8111H10.4414V6.9977L10.9707 10.8111H12.0293L12.5585 6.9977V10.8111H13.6171L14.6756 6.9977L19.9682 9.80982ZM3.03171 13.1902L11.5 21.6585L19.9682 13.1902L14.6756 16.0024L13.6171 12.1889H12.5585V16.0024L12.0293 12.1889H10.9707L10.4414 16.0024V12.1889H9.3829L8.32438 16.0024L3.03171 13.1902Z" fill="#FCFCFC"/>
<path d="M28.8638 22.0416L36.3634 0.942965H42.479L49.9786 22.0416H45.3114L43.6699 17.3803H35.0115L33.4343 22.0416H28.8638ZM36.1702 13.8536H42.479L39.4212 4.89897H39.2281L36.1702 13.8536ZM63.9332 22.287C62.3667 22.287 61.0578 22.195 60.0064 22.011C58.9549 21.827 58.1073 21.5306 57.4636 21.1216C56.8199 20.7127 56.3263 20.1403 55.983 19.4043C55.6611 18.6683 55.4358 17.7483 55.3071 16.6443C55.1997 15.5199 55.1461 14.1807 55.1461 12.627V0.942965H59.7167V13.731C59.7167 14.8146 59.7489 15.6936 59.8133 16.3683C59.8991 17.0226 60.06 17.5234 60.2961 17.871C60.5536 18.2186 60.972 18.4536 61.5514 18.5763C62.1307 18.6786 62.9246 18.7296 63.9332 18.7296C64.9417 18.7296 65.7249 18.6786 66.2829 18.5763C66.8622 18.4536 67.2807 18.2186 67.5382 17.871C67.7957 17.5234 67.9566 17.0226 68.021 16.3683C68.0854 15.6936 68.1175 14.8146 68.1175 13.731V0.942965H72.6881V12.627C72.6881 14.1807 72.6237 15.5199 72.495 16.6443C72.3877 17.7483 72.1731 18.6683 71.8512 19.4043C71.5294 20.1403 71.0466 20.7127 70.4028 21.1216C69.7591 21.5306 68.9115 21.827 67.86 22.011C66.8085 22.195 65.4996 22.287 63.9332 22.287ZM88.6607 22.287C87.0299 22.287 85.6673 22.1847 84.5729 21.9803C83.4785 21.7759 82.5881 21.4283 81.9014 20.9376C81.2147 20.447 80.689 19.7927 80.3242 18.975C79.9809 18.1572 79.7448 17.135 79.6161 15.9083C79.4873 14.6816 79.423 13.2096 79.423 11.4923C79.423 9.77497 79.4873 8.30297 79.6161 7.0763C79.7448 5.84963 79.9809 4.82741 80.3242 4.00963C80.689 3.19186 81.2147 2.53763 81.9014 2.04697C82.5881 1.5563 83.4785 1.20874 84.5729 1.0043C85.6673 0.799853 87.0299 0.697632 88.6607 0.697632C89.283 0.697632 89.9267 0.718076 90.5919 0.758966C91.2786 0.799854 91.933 0.861188 92.5553 0.942965C93.1776 1.02474 93.7033 1.11674 94.1325 1.21897V4.56163C93.5531 4.5003 92.9952 4.44919 92.4588 4.4083C91.9223 4.34697 91.418 4.30607 90.946 4.28563C90.4953 4.26519 90.1091 4.25497 89.7872 4.25497C88.6929 4.25497 87.7916 4.29586 87.0835 4.37763C86.3754 4.45941 85.8068 4.63319 85.3776 4.89897C84.9699 5.1443 84.6695 5.53274 84.4763 6.0643C84.2832 6.57541 84.1545 7.27052 84.0901 8.14963C84.0257 9.02874 83.9935 10.143 83.9935 11.4923C83.9935 12.8212 84.0257 13.9354 84.0901 14.835C84.1545 15.714 84.2832 16.4194 84.4763 16.951C84.6695 17.462 84.9699 17.8506 85.3776 18.1163C85.8068 18.3616 86.3754 18.5252 87.0835 18.607C87.7916 18.6887 88.6929 18.7296 89.7872 18.7296C90.4953 18.7296 91.2678 18.699 92.1047 18.6376C92.9416 18.5763 93.6604 18.5047 94.2612 18.423V21.827C93.7892 21.9087 93.2312 21.9803 92.5875 22.0416C91.9438 22.1234 91.2786 22.1847 90.5919 22.2256C89.9267 22.2666 89.283 22.287 88.6607 22.287ZM105.15 22.0416V4.62297H98.7446V0.942965H116.126V4.62297H109.72V22.0416H105.15ZM121.695 22.0416V0.942965H126.266V22.0416H121.695ZM142.51 22.287C140.707 22.287 139.216 22.1847 138.036 21.9803C136.877 21.7759 135.965 21.4386 135.3 20.9683C134.634 20.4776 134.151 19.8234 133.851 19.0056C133.551 18.1674 133.358 17.135 133.272 15.9083C133.186 14.6816 133.143 13.2096 133.143 11.4923C133.143 9.77497 133.186 8.30297 133.272 7.0763C133.358 5.84963 133.551 4.82741 133.851 4.00963C134.151 3.17141 134.634 2.51719 135.3 2.04697C135.965 1.5563 136.877 1.20874 138.036 1.0043C139.216 0.799853 140.707 0.697632 142.51 0.697632C144.312 0.697632 145.793 0.799853 146.952 1.0043C148.131 1.20874 149.054 1.5563 149.72 2.04697C150.385 2.51719 150.867 3.17141 151.168 4.00963C151.49 4.82741 151.693 5.84963 151.78 7.0763C151.865 8.30297 151.908 9.77497 151.908 11.4923C151.908 13.2096 151.865 14.6816 151.78 15.9083C151.693 17.135 151.49 18.1674 151.168 19.0056C150.867 19.8234 150.385 20.4776 149.72 20.9683C149.054 21.4386 148.131 21.7759 146.952 21.9803C145.793 22.1847 144.312 22.287 142.51 22.287ZM142.51 18.7296C143.453 18.7296 144.216 18.699 144.795 18.6376C145.396 18.5763 145.867 18.4332 146.211 18.2083C146.554 17.9834 146.801 17.6154 146.952 17.1043C147.123 16.5932 147.23 15.8879 147.273 14.9883C147.316 14.0887 147.338 12.9234 147.338 11.4923C147.338 10.0612 147.316 8.89586 147.273 7.9963C147.23 7.09674 147.123 6.39141 146.952 5.8803C146.801 5.36919 146.554 5.00119 146.211 4.7763C145.867 4.55141 145.396 4.4083 144.795 4.34697C144.216 4.28563 143.453 4.25497 142.51 4.25497C141.586 4.25497 140.825 4.28563 140.224 4.34697C139.645 4.4083 139.183 4.55141 138.84 4.7763C138.496 5.00119 138.239 5.36919 138.068 5.8803C137.917 6.39141 137.82 7.09674 137.778 7.9963C137.735 8.89586 137.714 10.0612 137.714 11.4923C137.714 12.9234 137.735 14.0887 137.778 14.9883C137.82 15.8879 137.917 16.5932 138.068 17.1043C138.239 17.6154 138.496 17.9834 138.84 18.2083C139.183 18.4332 139.645 18.5763 140.224 18.6376C140.825 18.699 141.586 18.7296 142.51 18.7296ZM158.797 22.0416V0.942965H163.529L172.252 13.9456H172.413V0.942965H176.79V22.0416H172.445L163.336 8.33363H163.175V22.0416H158.797ZM192.099 22.287C191.284 22.287 190.383 22.2666 189.395 22.2256C188.43 22.1847 187.486 22.1234 186.563 22.0416C185.641 21.9803 184.793 21.9087 184.02 21.827V18.3616C184.815 18.423 185.619 18.4843 186.434 18.5456C187.271 18.607 188.066 18.658 188.816 18.699C189.567 18.7194 190.211 18.7296 190.747 18.7296C191.842 18.7296 192.689 18.6887 193.29 18.607C193.891 18.5047 194.342 18.3616 194.642 18.1776C194.878 18.014 195.039 17.8403 195.125 17.6563C195.211 17.4519 195.264 17.2167 195.286 16.951C195.308 16.6647 195.318 16.3479 195.318 16.0003C195.318 15.53 195.286 15.1416 195.221 14.835C195.179 14.5283 195.092 14.2932 194.964 14.1296C194.835 13.9456 194.621 13.8127 194.32 13.731C194.041 13.6492 193.676 13.5879 193.226 13.547L188.269 12.9643C187.282 12.8416 186.466 12.627 185.823 12.3203C185.201 12.0136 184.707 11.6047 184.342 11.0936C183.978 10.5826 183.72 9.97938 183.569 9.2843C183.441 8.58919 183.376 7.80207 183.376 6.92297C183.376 5.53274 183.581 4.42874 183.988 3.61097C184.396 2.79319 184.965 2.16963 185.694 1.7403C186.445 1.31097 187.325 1.03497 188.333 0.912299C189.342 0.769188 190.436 0.697632 191.616 0.697632C192.475 0.697632 193.354 0.728299 194.256 0.789632C195.157 0.830521 196.005 0.891853 196.798 0.973633C197.593 1.05541 198.258 1.15763 198.794 1.2803V4.65363C198.258 4.57186 197.635 4.5003 196.927 4.43897C196.219 4.37763 195.479 4.33674 194.706 4.3163C193.934 4.27541 193.205 4.25497 192.518 4.25497C191.51 4.25497 190.705 4.29586 190.103 4.37763C189.524 4.43897 189.073 4.55141 188.752 4.71497C188.387 4.91941 188.162 5.18519 188.076 5.5123C188.011 5.83941 187.979 6.2483 187.979 6.73897C187.979 7.3523 188.022 7.82252 188.108 8.14963C188.194 8.4563 188.398 8.67097 188.719 8.79363C189.041 8.9163 189.546 9.01853 190.232 9.1003L195.189 9.6523C195.791 9.71363 196.348 9.81589 196.863 9.95897C197.378 10.102 197.839 10.327 198.247 10.6336C198.655 10.9403 198.987 11.3696 199.245 11.9216C199.395 12.2079 199.513 12.5452 199.599 12.9336C199.685 13.3016 199.75 13.7207 199.792 14.191C199.856 14.6612 199.888 15.1826 199.888 15.755C199.888 16.9407 199.76 17.9323 199.502 18.7296C199.267 19.527 198.923 20.1607 198.472 20.631C198.022 21.1012 197.464 21.459 196.798 21.7043C196.155 21.9496 195.436 22.103 194.642 22.1643C193.848 22.246 193 22.287 192.099 22.287Z" fill="#FCFCFC"/>
</svg>
